<?xml version="1.0" standalone="no"?>
<!DOCTYPE svg PUBLIC "-//W3C//DTD SVG 20010904//EN"
 "http://www.w3.org/TR/2001/REC-SVG-20010904/DTD/svg10.dtd">
<svg version="1.0" xmlns="http://www.w3.org/2000/svg"
 width="1024.000000pt" height="1024.000000pt" viewBox="0 0 1024.000000 1024.000000"
 preserveAspectRatio="xMidYMid meet">

<g transform="translate(0.000000,1024.000000) scale(0.100000,-0.100000)"
fill="#000000" stroke="none">
<path d="M3655 8585 c-38 -9 -113 -36 -165 -62 l-95 -46 -385 -380 c-665 -655
-653 -641 -715 -822 -53 -153 -56 -311 -9 -453 9 -26 34 -85 56 -132 39 -81
52 -96 267 -311 240 -240 266 -259 391 -290 144 -35 328 2 435 88 140 113 201
267 138 352 -59 77 -112 82 -231 20 -75 -39 -88 -43 -152 -42 -126 2 -152 17
-331 186 -187 177 -215 220 -213 325 1 51 9 78 38 137 34 68 65 102 482 514
271 268 463 450 488 463 63 33 183 36 261 8 52 -20 76 -39 185 -149 131 -133
162 -179 182 -274 14 -66 0 -140 -38 -214 -15 -27 -80 -103 -152 -176 l-127
-128 92 -89 92 -90 78 0 79 0 136 138 c150 152 192 216 230 347 45 160 18 367
-68 523 -40 71 -242 294 -350 386 -80 69 -208 137 -299 161 -90 23 -218 27
-300 10z"/>
<path d="M5782 8436 c-200 -50 -305 -283 -212 -470 19 -38 19 -39 -2 -67 -17
-22 -400 -397 -886 -866 l-34 -33 -266 -2 -267 -3 46 -50 c25 -27 60 -69 78
-92 l33 -43 232 0 233 0 473 477 c260 262 485 487 500 500 24 20 32 22 57 12
51 -20 170 -12 229 15 71 33 138 97 171 165 24 48 28 68 28 141 0 73 -4 92
-27 136 -35 66 -124 147 -185 168 -68 23 -140 27 -201 12z m139 -201 c66 -35
88 -123 46 -186 -39 -58 -98 -74 -162 -43 -88 41 -82 190 8 229 42 19 71 18
108 0z"/>
<path d="M6937 8370 c-192 -48 -302 -240 -240 -422 l19 -57 -631 -631 -631
-630 -577 2 c-382 2 -576 0 -573 -7 2 -5 16 -49 32 -97 l28 -88 581 0 580 0
295 291 c162 160 460 455 662 656 l366 366 66 -18 c254 -69 481 172 399 425
-45 141 -232 245 -376 210z m146 -230 c22 -25 27 -40 27 -84 0 -47 -4 -58 -31
-85 -25 -26 -38 -31 -78 -31 -53 0 -84 18 -106 60 -46 89 21 188 120 176 28
-3 48 -14 68 -36z"/>
<path d="M3250 7342 c-171 -46 -290 -184 -290 -335 0 -67 26 -115 76 -144 55
-32 100 -29 160 9 40 26 61 33 119 36 102 6 140 -15 267 -147 111 -115 149
-174 173 -269 27 -104 -8 -223 -99 -340 -24 -31 -217 -229 -428 -439 -439
-438 -439 -438 -583 -437 -109 0 -164 28 -287 148 -117 112 -143 160 -143 261
0 129 17 157 209 353 l170 173 -145 145 c-79 79 -148 144 -154 144 -17 0 -370
-361 -399 -408 -65 -104 -115 -278 -115 -397 -1 -79 26 -183 70 -275 38 -80
52 -97 237 -280 175 -174 205 -200 272 -232 190 -92 394 -90 598 7 l94 45 469
461 c258 254 490 489 516 523 103 136 163 311 163 473 0 200 -65 363 -204 513
-101 108 -315 309 -368 344 -111 74 -259 101 -378 68z"/>
<path d="M6884 7169 c-94 -36 -172 -125 -190 -217 l-6 -32 -202 0 -201 -1
-319 -319 -320 -319 65 -59 64 -60 245 238 c135 131 270 264 300 294 l54 56
156 0 155 0 24 -45 c30 -57 98 -120 159 -148 37 -17 66 -22 137 -22 78 0 97 4
147 28 74 36 150 119 174 189 28 80 24 179 -8 250 -35 75 -103 141 -174 167
-73 28 -189 28 -260 0z m213 -213 c27 -29 33 -44 33 -81 0 -57 -21 -100 -60
-120 -119 -62 -238 77 -164 191 43 64 137 69 191 10z"/>
<path d="M4334 6228 c-11 -17 -54 -140 -54 -153 0 -13 40 -15 283 -15 l282 0
280 -279 280 -279 261 5 260 6 18 -47 c25 -66 109 -154 176 -184 43 -20 73
-25 135 -26 72 -1 88 3 147 32 73 36 124 87 160 161 18 37 23 64 23 136 0 79
-4 98 -29 153 -77 167 -284 239 -450 158 -67 -33 -151 -122 -167 -177 l-12
-39 -206 0 -206 0 -275 275 -274 274 -314 3 c-173 2 -316 0 -318 -4z m1992
-527 c66 -41 71 -152 10 -208 -60 -55 -147 -43 -193 26 -39 58 -25 134 33 180
35 27 107 28 150 2z"/>
<path d="M5950 4164 c-178 -47 -307 -181 -355 -369 -30 -118 -14 -251 45 -372
64 -129 176 -217 319 -249 82 -19 182 -15 263 10 101 31 203 119 253 216 19
39 45 130 45 161 0 6 -39 9 -101 7 l-101 -3 -19 -49 c-40 -107 -129 -162 -248
-154 -182 13 -293 182 -251 383 32 156 124 243 261 247 110 3 200 -55 236
-151 9 -25 18 -48 19 -49 1 -2 48 10 103 27 l100 31 -15 42 c-33 94 -119 195
-203 237 -97 50 -241 64 -351 35z"/>
<path d="M8128 4164 c-77 -41 -57 -158 31 -185 50 -15 86 -6 122 31 31 30 39
83 19 121 -25 45 -117 63 -172 33z"/>
<path d="M1340 4154 c0 0 63 -105 140 -233 77 -127 140 -234 140 -237 0 -3
-17 -31 -38 -62 -58 -86 -272 -430 -272 -436 0 -3 51 -6 113 -6 l112 0 79 138
c44 75 90 156 103 180 l25 44 106 -181 107 -181 112 0 111 0 -80 133 c-44 72
-111 182 -149 243 -38 61 -69 115 -69 120 0 5 62 113 139 239 l138 230 -96 5
c-53 3 -101 4 -107 2 -5 -1 -52 -79 -103 -173 -52 -93 -96 -167 -99 -165 -3 3
-47 80 -97 171 l-93 166 -111 2 c-61 1 -111 2 -111 1z"/>
<path d="M3695 4152 c-3 -3 -5 -223 -5 -489 l0 -483 90 0 90 0 0 488 0 487
-85 1 c-47 0 -87 -2 -90 -4z"/>
<path d="M6590 3669 l0 -489 94 0 95 0 3 238 c3 219 5 239 23 264 46 63 143
78 196 30 42 -38 48 -77 49 -324 l0 -208 91 0 90 0 -3 288 c-3 279 -4 288 -27
335 -30 62 -80 95 -163 109 -84 14 -161 -7 -218 -59 l-40 -35 0 168 0 169 -95
2 -95 1 0 -489z"/>
<path d="M3198 3910 c-80 -10 -163 -53 -194 -100 -22 -33 -54 -117 -54 -142 0
-4 40 -8 89 -8 87 0 89 1 95 25 14 54 125 84 201 55 28 -10 55 -62 55 -103 0
-28 -18 -33 -110 -36 -154 -4 -284 -61 -325 -142 -19 -36 -19 -132 -1 -167 21
-39 75 -88 121 -107 25 -11 68 -18 115 -18 85 -1 122 13 183 71 l37 36 0 -28
c0 -56 14 -66 93 -66 l72 0 -3 262 c-2 145 -8 280 -13 301 -12 47 -60 102
-112 128 -36 19 -158 50 -182 48 -5 -1 -36 -5 -67 -9z m192 -447 c-1 -54 -33
-119 -69 -137 -38 -20 -113 -20 -151 -1 -52 27 -52 98 1 137 34 25 78 36 157
37 l62 1 0 -37z"/>
<path d="M4233 3905 c-257 -72 -346 -410 -163 -617 56 -64 118 -92 215 -96
102 -4 154 20 203 92 l32 48 0 -61 c0 -70 -15 -107 -60 -145 -85 -71 -268 -52
-363 38 -34 32 -38 29 -94 -51 l-38 -55 30 -25 c96 -78 195 -114 317 -114 144
0 216 28 295 115 80 87 83 108 83 514 l0 342 -85 0 -85 0 0 -32 0 -32 -22 23
c-52 57 -173 82 -265 56z m181 -175 c62 -30 90 -79 94 -164 3 -60 0 -78 -20
-116 -34 -62 -78 -90 -143 -90 -102 0 -160 67 -160 185 0 92 30 150 95 183 54
27 82 28 134 2z"/>
<path d="M5074 3906 c-117 -28 -207 -101 -258 -206 -28 -59 -31 -74 -31 -160
0 -88 3 -101 32 -161 40 -80 111 -150 191 -187 47 -22 71 -26 142 -27 72 0 94
4 143 27 92 44 142 91 184 175 90 183 33 402 -131 498 -43 25 -152 55 -196 54
-14 0 -48 -6 -76 -13z m121 -167 c114 -32 165 -179 104 -301 -77 -152 -282
-110 -314 65 -17 91 32 201 103 231 45 18 56 19 107 5z"/>
<path d="M7573 3909 c-128 -25 -199 -93 -218 -206 l-7 -43 89 0 88 0 15 33
c21 45 53 58 128 54 77 -4 102 -24 109 -91 3 -25 2 -46 -3 -46 -235 -12 -358
-51 -412 -133 -36 -54 -37 -145 -3 -201 82 -131 285 -155 396 -46 l42 41 12
-45 11 -46 86 0 c66 0 83 3 77 13 -4 6 -10 129 -13 272 -5 242 -7 263 -27 300
-41 77 -114 125 -218 144 -66 12 -92 12 -152 0z m207 -456 c0 -51 -28 -106
-63 -125 -60 -32 -139 -26 -178 13 -38 38 -17 108 39 135 33 15 177 35 195 26
4 -2 7 -24 7 -49z"/>
<path d="M8745 3905 c-27 -8 -53 -14 -57 -15 -3 0 -27 -16 -52 -35 l-46 -35 0
35 0 35 -95 0 -95 0 0 -355 0 -355 94 0 95 0 3 228 c3 206 5 230 23 261 26 44
84 71 143 65 96 -9 102 -29 102 -319 l0 -235 98 0 97 0 -5 292 c-6 323 -6 328
-72 383 -65 55 -151 74 -233 50z"/>
<path d="M2260 3809 l0 -80 170 3 c94 2 170 2 170 0 0 -1 -76 -86 -170 -189
l-170 -186 0 -89 0 -88 305 0 305 0 0 75 0 75 -201 0 -201 0 34 39 c18 21 108
122 201 224 l167 185 0 56 0 56 -305 0 -305 0 0 -81z"/>
<path d="M8090 3535 l0 -355 95 0 95 0 0 355 0 355 -95 0 -95 0 0 -355z"/>
</g>
</svg>
